<?xml version="1.0" standalone="no"?>
<svg xmlns:xlink="http://www.w3.org/1999/xlink" id="wave" style="transform:rotate(0deg); transition: 0.3s" viewBox="0 0 1440 280" version="1.1" xmlns="http://www.w3.org/2000/svg"><defs><linearGradient id="sw-gradient-0" x1="0" x2="0" y1="1" y2="0"><stop stop-color="rgba(119, 88, 207, 1)" offset="0%"/><stop stop-color="rgba(151, 85, 200, 1)" offset="100%"/></linearGradient></defs><path style="transform:translate(0, 0px); opacity:1" fill="url(#sw-gradient-0)" d="M0,168L80,154C160,140,320,112,480,126C640,140,800,196,960,186.7C1120,177,1280,103,1440,84C1600,65,1760,103,1920,102.7C2080,103,2240,65,2400,84C2560,103,2720,177,2880,214.7C3040,252,3200,252,3360,219.3C3520,187,3680,121,3840,121.3C4000,121,4160,187,4320,200.7C4480,215,4640,177,4800,149.3C4960,121,5120,103,5280,121.3C5440,140,5600,196,5760,214.7C5920,233,6080,215,6240,177.3C6400,140,6560,84,6720,84C6880,84,7040,140,7200,149.3C7360,159,7520,121,7680,98C7840,75,8000,65,8160,70C8320,75,8480,93,8640,126C8800,159,8960,205,9120,214.7C9280,224,9440,196,9600,186.7C9760,177,9920,187,10080,163.3C10240,140,10400,84,10560,93.3C10720,103,10880,177,11040,205.3C11200,233,11360,215,11440,205.3L11520,196L11520,280L11440,280C11360,280,11200,280,11040,280C10880,280,10720,280,10560,280C10400,280,10240,280,10080,280C9920,280,9760,280,9600,280C9440,280,9280,280,9120,280C8960,280,8800,280,8640,280C8480,280,8320,280,8160,280C8000,280,7840,280,7680,280C7520,280,7360,280,7200,280C7040,280,6880,280,6720,280C6560,280,6400,280,6240,280C6080,280,5920,280,5760,280C5600,280,5440,280,5280,280C5120,280,4960,280,4800,280C4640,280,4480,280,4320,280C4160,280,4000,280,3840,280C3680,280,3520,280,3360,280C3200,280,3040,280,2880,280C2720,280,2560,280,2400,280C2240,280,2080,280,1920,280C1760,280,1600,280,1440,280C1280,280,1120,280,960,280C800,280,640,280,480,280C320,280,160,280,80,280L0,280Z"/><defs><linearGradient id="sw-gradient-1" x1="0" x2="0" y1="1" y2="0"><stop stop-color="rgba(119, 88, 207, 1)" offset="0%"/><stop stop-color="rgba(151, 85, 200, 1)" offset="100%"/></linearGradient></defs><path style="transform:translate(0, 50px); opacity:0.9" fill="url(#sw-gradient-1)" d="M0,84L80,98C160,112,320,140,480,130.7C640,121,800,75,960,65.3C1120,56,1280,84,1440,112C1600,140,1760,168,1920,158.7C2080,149,2240,103,2400,98C2560,93,2720,131,2880,154C3040,177,3200,187,3360,168C3520,149,3680,103,3840,112C4000,121,4160,187,4320,177.3C4480,168,4640,84,4800,56C4960,28,5120,56,5280,70C5440,84,5600,84,5760,84C5920,84,6080,84,6240,70C6400,56,6560,28,6720,23.3C6880,19,7040,37,7200,42C7360,47,7520,37,7680,70C7840,103,8000,177,8160,186.7C8320,196,8480,140,8640,112C8800,84,8960,84,9120,93.3C9280,103,9440,121,9600,149.3C9760,177,9920,215,10080,191.3C10240,168,10400,84,10560,42C10720,0,10880,0,11040,23.3C11200,47,11360,93,11440,116.7L11520,140L11520,280L11440,280C11360,280,11200,280,11040,280C10880,280,10720,280,10560,280C10400,280,10240,280,10080,280C9920,280,9760,280,9600,280C9440,280,9280,280,9120,280C8960,280,8800,280,8640,280C8480,280,8320,280,8160,280C8000,280,7840,280,7680,280C7520,280,7360,280,7200,280C7040,280,6880,280,6720,280C6560,280,6400,280,6240,280C6080,280,5920,280,5760,280C5600,280,5440,280,5280,280C5120,280,4960,280,4800,280C4640,280,4480,280,4320,280C4160,280,4000,280,3840,280C3680,280,3520,280,3360,280C3200,280,3040,280,2880,280C2720,280,2560,280,2400,280C2240,280,2080,280,1920,280C1760,280,1600,280,1440,280C1280,280,1120,280,960,280C800,280,640,280,480,280C320,280,160,280,80,280L0,280Z"/></svg>